<svg width="360" height="45" viewBox="0 0 360 45" fill="none" xmlns="http://www.w3.org/2000/svg">
<g filter="url(#filter0_f_3368_199)">
<circle cx="3" cy="3" r="3" transform="matrix(1 0 0 -1 177 8)" fill="#8586D1"/>
</g>
<g filter="url(#filter1_f_3368_199)">
<circle cx="3" cy="3" r="3" transform="matrix(1 0 0 -1 197 8)" fill="#8586D1"/>
</g>
<path d="M55.2617 10.8516V18.7578H58.6084V20.2402H55.2617V30.8643H53.5098V10.8516H55.2617ZM50.0059 12.8057V14.2656H42.4365V24.373C46.0527 24.373 48.6133 24.2046 51.5781 23.6543L51.8027 25.1816C48.6807 25.7432 46.0527 25.8555 42.2568 25.8555H40.6846V12.8057H50.0059ZM77.9473 21.9248V23.3848H59.6641V21.9248H77.9473ZM76.0156 28.9102V30.3926H62.0898V24.957H63.8643V28.9102H76.0156ZM75.5889 11.5479V16.4668H63.7969V18.6904H76.0156V20.083H62.0449V15.1416H73.8145V12.9629H61.9775V11.5479H75.5889ZM92.0303 16.2197C92.0303 19.7461 94.3662 23.3623 97.1963 24.7549L96.1182 26.1699C93.917 25.0132 92.0752 22.6548 91.1992 19.8809C90.3008 22.8345 88.4141 25.3501 86.168 26.5518L85.0449 25.1367C87.9648 23.6992 90.2783 19.8584 90.3008 16.2197V12.5811H92.0303V16.2197ZM100.79 10.8516V18.96H104.137V20.4873H100.79V30.8193H99.0381V10.8516H100.79ZM120.825 10.874V15.9951H123.857V17.5H120.825V22.7783H119.073V10.874H120.825ZM120.825 23.7666V30.5498H108.18V23.7666H120.825ZM109.909 25.1367V29.1123H119.118V25.1367H109.909ZM115.12 11.9521V17.4102H107.843V20.2402C111.392 20.2402 113.963 20.1392 117.074 19.6338L117.254 21.0488C114.042 21.6104 111.369 21.7227 107.663 21.7227H106.113V16.04H113.391V13.4121H106.068V11.9521H115.12ZM143.309 19.252V20.667H125.093V19.252H143.309ZM141.13 16.1748V17.6123H127.519V11.5479H140.928V12.9629H129.293V16.1748H141.13ZM140.95 22.4639V27.0908H129.091V29.1572H141.557V30.5947H127.339V25.7656H139.221V23.834H127.294V22.4639H140.95ZM151.507 12.3115C154.651 12.3115 156.875 14.2207 156.875 17.0059C156.875 19.791 154.651 21.7002 151.507 21.7002C148.362 21.7002 146.094 19.791 146.116 17.0059C146.094 14.2207 148.362 12.3115 151.507 12.3115ZM151.507 13.8613C149.373 13.8613 147.823 15.1416 147.846 17.0059C147.823 18.8701 149.373 20.1504 151.507 20.1504C153.618 20.1504 155.146 18.8701 155.146 17.0059C155.146 15.1416 153.618 13.8613 151.507 13.8613ZM161.345 10.8516V30.8643H159.593V10.8516H161.345ZM145.083 24.957C148.767 24.957 153.843 24.9346 158.268 24.2832L158.402 25.5859C153.843 26.4395 148.924 26.4619 145.33 26.4619L145.083 24.957ZM177.449 14.625C177.449 17.4102 179.471 20.0381 182.391 21.0938L181.402 22.4639C179.212 21.5879 177.472 19.8472 176.618 17.6797C175.765 20.0942 173.945 22.0146 171.587 22.958L170.644 21.5205C173.631 20.4199 175.697 17.6348 175.72 14.5576V12.0869H177.449V14.625ZM187.175 10.874V25.833H185.4V17.0508H180.953V15.5684H185.4V10.874H187.175ZM187.624 28.9102V30.3926H174.26V24.126H176.034V28.9102H187.624ZM199.146 12.3115V13.7939H193.082V16.2871H198.922V17.6797H193.082V20.4424C195.991 20.4312 197.81 20.3301 199.955 19.9033L200.135 21.3633C197.799 21.8125 195.912 21.9248 192.655 21.9248H191.397V12.3115H199.146ZM207.457 10.874V22.9805H205.772V17.5225H202.965V22.8457H201.325V11.2559H202.965V16.085H205.772V10.874H207.457ZM207.457 24.0137V30.8193H205.728V25.4512H194.003V24.0137H207.457ZM226.841 10.8516V30.8643H225.066V10.8516H226.841ZM216.217 12.4014C219.182 12.4238 221.315 15.1191 221.315 19.3643C221.315 23.6094 219.182 26.3047 216.217 26.3047C213.229 26.3047 211.118 23.6094 211.118 19.3643C211.118 15.1191 213.229 12.4238 216.217 12.4014ZM216.217 13.9736C214.218 13.9961 212.825 16.1074 212.825 19.3643C212.825 22.6211 214.218 24.7324 216.217 24.7324C218.216 24.7324 219.608 22.6211 219.608 19.3643C219.608 16.1074 218.216 13.9961 216.217 13.9736ZM251.907 11.7275V13.1426C251.907 14.6475 251.907 16.4893 251.413 18.8701H254.311V20.3076H245.978V23.4521C249.796 23.6094 252.064 24.9121 252.087 27.0908C252.064 29.4717 249.459 30.7744 245.124 30.7744C240.744 30.7744 238.116 29.4717 238.116 27.0908C238.116 24.9121 240.396 23.6206 244.248 23.4521V20.3076H236.027V18.8701H249.639C250.155 16.4443 250.155 14.6812 250.155 13.165H238.341V11.7275H251.907ZM245.124 24.8447C241.867 24.8672 239.891 25.6758 239.913 27.0908C239.891 28.5283 241.867 29.3594 245.124 29.3594C248.313 29.3594 250.29 28.5283 250.312 27.0908C250.29 25.6758 248.313 24.8672 245.124 24.8447ZM271.785 11.9297V13.4121C271.785 14.9619 271.785 16.7812 271.269 19.2744H274.188V20.7344H255.905V19.2744H269.494C270.033 16.77 270.033 14.9619 270.033 13.4121V13.3896H258.219V11.9297H271.785ZM271.875 23.4971V30.5498H258.151V23.4971H271.875ZM259.903 24.8896V29.1123H270.123V24.8896H259.903ZM291.236 10.8516V19.0947H294.583V20.5547H291.236V30.8193H289.484V10.8516H291.236ZM287.553 14.0635V15.5234H275.671V14.0635H280.814V11.0986H282.566V14.0635H287.553ZM281.713 17.1855C284.543 17.1855 286.587 19.0723 286.609 21.7676C286.587 24.4629 284.543 26.3496 281.713 26.3496C278.86 26.3496 276.794 24.4629 276.816 21.7676C276.794 19.0723 278.86 17.1855 281.713 17.1855ZM281.713 18.668C279.849 18.668 278.479 19.9707 278.501 21.7676C278.479 23.5869 279.849 24.8672 281.713 24.8447C283.555 24.8672 284.902 23.5869 284.925 21.7676C284.902 19.9707 283.555 18.668 281.713 18.668ZM311.114 10.8516V18.7578H314.461V20.2402H311.114V30.8643H309.362V10.8516H311.114ZM305.858 12.8057V14.2656H298.289V24.373C301.905 24.373 304.466 24.2046 307.431 23.6543L307.655 25.1816C304.533 25.7432 301.905 25.8555 298.109 25.8555H296.537V12.8057H305.858ZM325.646 12.6035V14.3779H330.318V10.874H332.093V25.4512H330.318V20.1279H325.646V21.9248H316.482V12.6035H325.646ZM318.234 14.0635V20.5098H323.917V14.0635H318.234ZM332.542 28.9102V30.3926H319.178V24.1484H320.952V28.9102H332.542ZM325.646 18.668H330.318V15.8604H325.646V18.668ZM338.606 24.3057C338.629 21.2959 339.55 20.375 341.1 19.4316C342.021 18.8701 342.739 17.9717 342.739 16.7139C342.739 15.1865 341.549 14.2207 340.066 14.2207C338.786 14.2207 337.506 14.9844 337.371 16.8262H335.327C335.439 14.1084 337.506 12.5137 340.066 12.5137C342.874 12.5137 344.716 14.333 344.716 16.8037C344.716 18.5557 343.885 19.791 342.492 20.6445C341.1 21.498 340.583 22.3516 340.538 24.3057V24.418H338.606V24.3057ZM339.64 29.1348C338.854 29.1348 338.18 28.4834 338.202 27.6748C338.18 26.8887 338.854 26.2373 339.64 26.2373C340.426 26.2373 341.077 26.8887 341.077 27.6748C341.077 28.4834 340.426 29.1348 339.64 29.1348Z" fill="black"/>
<g clip-path="url(#clip0_3368_199)">
<path d="M27 32.875V34H2.8125C1.26113 34 0 32.7377 0 31.1875V7H1.125V31.1875C1.125 32.1179 1.88213 32.875 2.8125 32.875H27ZM7.875 19.375H6.75V29.5H7.875V19.375ZM12.375 13.75H11.25V29.5H12.375V13.75ZM16.875 19.375H15.75V29.5H16.875V19.375ZM21.375 13.75H20.25V29.5H21.375V13.75Z" fill="black"/>
</g>
<g filter="url(#filter2_d_3368_199)">
<path d="M42 37.5C41.7239 37.5 41.5 37.7239 41.5 38C41.5 38.2761 41.7239 38.5 42 38.5V37.5ZM351 38.5L356 40.8868V35.1132L351 37.5V38.5ZM42 38.5H351.5V37.5H42V38.5Z" fill="#8586D1"/>
</g>
<defs>
<filter id="filter0_f_3368_199" x="175" y="0" width="10" height="10" filterUnits="userSpaceOnUse" color-interpolation-filters="sRGB">
<feFlood flood-opacity="0" result="BackgroundImageFix"/>
<feBlend mode="normal" in="SourceGraphic" in2="BackgroundImageFix" result="shape"/>
<feGaussianBlur stdDeviation="1" result="effect1_foregroundBlur_3368_199"/>
</filter>
<filter id="filter1_f_3368_199" x="195" y="0" width="10" height="10" filterUnits="userSpaceOnUse" color-interpolation-filters="sRGB">
<feFlood flood-opacity="0" result="BackgroundImageFix"/>
<feBlend mode="normal" in="SourceGraphic" in2="BackgroundImageFix" result="shape"/>
<feGaussianBlur stdDeviation="1" result="effect1_foregroundBlur_3368_199"/>
</filter>
<filter id="filter2_d_3368_199" x="37.5" y="31.1133" width="322.5" height="13.7734" filterUnits="userSpaceOnUse" color-interpolation-filters="sRGB">
<feFlood flood-opacity="0" result="BackgroundImageFix"/>
<feColorMatrix in="SourceAlpha" type="matrix" values="0 0 0 0 0 0 0 0 0 0 0 0 0 0 0 0 0 0 127 0" result="hardAlpha"/>
<feOffset/>
<feGaussianBlur stdDeviation="2"/>
<feComposite in2="hardAlpha" operator="out"/>
<feColorMatrix type="matrix" values="0 0 0 0 0.1325 0 0 0 0 0.140292 0 0 0 0 0.6 0 0 0 0.2 0"/>
<feBlend mode="normal" in2="BackgroundImageFix" result="effect1_dropShadow_3368_199"/>
<feBlend mode="normal" in="SourceGraphic" in2="effect1_dropShadow_3368_199" result="shape"/>
</filter>
<clipPath id="clip0_3368_199">
<rect width="27" height="27" fill="white" transform="translate(0 7)"/>
</clipPath>
</defs>
</svg>
