<svg width="29" height="29" viewBox="0 0 29 29" fill="none" xmlns="http://www.w3.org/2000/svg">
<path d="M25.9792 7.25H17.0012L15.3748 5.67554L20.6842 3.02083L14.6426 0H13.2917V5.99938L11.9988 7.25H3.02083C1.35454 7.25 0 8.60575 0 10.2708V29H29V10.2708C29 8.60575 27.6455 7.25 25.9792 7.25ZM25.9792 8.45833C26.9785 8.45833 27.7917 9.27154 27.7917 10.2708V12.0833H21.9941L18.2495 8.45833H25.9792ZM14.5 1.27963L17.9824 3.02083L14.5 4.76204V1.27963ZM3.02083 8.45833H10.7505L7.00592 12.0833H1.20833V10.2708C1.20833 9.27154 2.02154 8.45833 3.02083 8.45833ZM16.9167 27.7917H12.0833V20.5417C12.0833 19.2089 13.1672 18.125 14.5 18.125C15.8328 18.125 16.9167 19.2089 16.9167 20.5417V27.7917ZM18.125 27.7917V20.5417C18.125 18.5431 16.4986 16.9167 14.5 16.9167C12.5014 16.9167 10.875 18.5431 10.875 20.5417V27.7917H1.20833V13.2917H7.49408L14.5 6.5105L21.5059 13.2917H27.7917V27.7917H18.125ZM4.83333 18.125H8.45833V19.3333H4.83333V18.125ZM4.83333 22.9583H8.45833V24.1667H4.83333V22.9583ZM20.5417 18.125H24.1667V19.3333H20.5417V18.125ZM20.5417 22.9583H24.1667V24.1667H20.5417V22.9583ZM15.7083 12.0833C15.7083 12.7503 15.167 13.2917 14.5 13.2917C13.833 13.2917 13.2917 12.7503 13.2917 12.0833C13.2917 11.4163 13.833 10.875 14.5 10.875C15.167 10.875 15.7083 11.4163 15.7083 12.0833Z" fill="black"/>
</svg>
