<svg width="274" height="41" viewBox="0 0 274 41" fill="none" xmlns="http://www.w3.org/2000/svg">
<g filter="url(#filter0_f_3368_209)">
<circle cx="3" cy="3" r="3" transform="matrix(1 0 0 -1 91 8)" fill="#8586D1"/>
</g>
<g filter="url(#filter1_f_3368_209)">
<circle cx="3" cy="3" r="3" transform="matrix(1 0 0 -1 111 8)" fill="#8586D1"/>
</g>
<path d="M50.7578 13.0078V14.4453H38.8535V13.0078H43.9297V10.7617H45.6816V13.0078H50.7578ZM44.8057 15.4785C47.6807 15.501 49.5898 16.8936 49.6123 19.0947C49.5898 21.2734 47.6807 22.6885 44.8057 22.6885C41.9307 22.6885 39.9766 21.2734 39.999 19.0947C39.9766 16.8936 41.9307 15.501 44.8057 15.4785ZM44.8057 16.8486C42.9189 16.8711 41.6611 17.7471 41.6836 19.0947C41.6611 20.4199 42.9189 21.2734 44.8057 21.2734C46.6699 21.2734 47.9277 20.4199 47.9502 19.0947C47.9277 17.7471 46.6699 16.8711 44.8057 16.8486ZM54.4189 10.8516V16.3994H57.4287V17.8818H54.4189V23.3398H52.667V10.8516H54.4189ZM54.4189 24.4404V30.8193H52.667V25.8779H41.3467V24.4404H54.4189ZM74.7236 12.873V15.0967C74.7236 17.6572 74.7236 20.2402 74.0049 23.9463L72.2754 23.7441C72.9941 20.2178 72.9941 17.5898 72.9941 15.0967V14.333H60.5957V12.873H74.7236ZM76.8799 26.5293V27.9893H58.6865V26.5293H63.2012V19.9482H64.9531V26.5293H68.1875V19.9482H69.917V26.5293H76.8799ZM100.891 10.8516V22.7559H99.1162V17.5225H95.0957V16.0625H99.1162V10.8516H100.891ZM94.2646 23.3848C98.4199 23.3848 100.958 24.7324 100.958 27.0908C100.958 29.4492 98.4199 30.7969 94.2646 30.8193C90.1094 30.7969 87.5713 29.4492 87.5713 27.0908C87.5713 24.7324 90.1094 23.3848 94.2646 23.3848ZM94.2646 24.7549C91.21 24.7549 89.3008 25.6309 89.3232 27.0908C89.3008 28.5283 91.21 29.4043 94.2646 29.4043C97.3193 29.4043 99.2061 28.5283 99.2061 27.0908C99.2061 25.6309 97.3193 24.7549 94.2646 24.7549ZM91.2773 14.5127C91.2773 17.1182 93.2764 19.5889 96.1963 20.5996L95.2754 22.0146C93.0293 21.2061 91.2886 19.5327 90.4463 17.4551C89.5703 19.8022 87.7173 21.6777 85.3477 22.5762L84.4268 21.1611C87.3916 20.083 89.5029 17.3877 89.5029 14.5352V13.7939H84.9883V12.3115H95.7471V13.7939H91.2773V14.5127ZM122.498 26.7988V28.2588H104.215V26.7988H112.436V22.4863H106.371V12.2666H108.146V15.8828H118.522V12.2666H120.252V22.4863H114.165V26.7988H122.498ZM108.146 21.0488H118.522V17.3203H108.146V21.0488ZM139.546 10.8516V18.9824H142.78V20.4648H139.546V30.8193H137.794V10.8516H139.546ZM134.38 13.0078C134.38 18.668 131.729 23.8115 125.216 27.0234L124.228 25.6309C129.394 23.0591 132.201 19.2183 132.605 14.4902H125.148V13.0078H134.38ZM165.623 11.7275V13.1426C165.623 14.6475 165.623 16.4893 165.129 18.8701H168.026V20.3076H159.693V23.4521C163.512 23.6094 165.78 24.9121 165.803 27.0908C165.78 29.4717 163.175 30.7744 158.84 30.7744C154.46 30.7744 151.832 29.4717 151.832 27.0908C151.832 24.9121 154.112 23.6206 157.964 23.4521V20.3076H149.743V18.8701H163.354C163.871 16.4443 163.871 14.6812 163.871 13.165H152.057V11.7275H165.623ZM158.84 24.8447C155.583 24.8672 153.606 25.6758 153.629 27.0908C153.606 28.5283 155.583 29.3594 158.84 29.3594C162.029 29.3594 164.006 28.5283 164.028 27.0908C164.006 25.6758 162.029 24.8672 158.84 24.8447ZM185.501 11.9297V13.4121C185.501 14.9619 185.501 16.7812 184.984 19.2744H187.904V20.7344H169.621V19.2744H183.21C183.749 16.77 183.749 14.9619 183.749 13.4121V13.3896H171.935V11.9297H185.501ZM185.591 23.4971V30.5498H171.867V23.4971H185.591ZM173.619 24.8896V29.1123H183.839V24.8896H173.619ZM204.952 10.8516V19.0947H208.299V20.5547H204.952V30.8193H203.2V10.8516H204.952ZM201.269 14.0635V15.5234H189.387V14.0635H194.53V11.0986H196.282V14.0635H201.269ZM195.429 17.1855C198.259 17.1855 200.303 19.0723 200.325 21.7676C200.303 24.4629 198.259 26.3496 195.429 26.3496C192.576 26.3496 190.51 24.4629 190.532 21.7676C190.51 19.0723 192.576 17.1855 195.429 17.1855ZM195.429 18.668C193.564 18.668 192.194 19.9707 192.217 21.7676C192.194 23.5869 193.564 24.8672 195.429 24.8447C197.271 24.8672 198.618 23.5869 198.641 21.7676C198.618 19.9707 197.271 18.668 195.429 18.668ZM224.83 10.8516V18.7578H228.177V20.2402H224.83V30.8643H223.078V10.8516H224.83ZM219.574 12.8057V14.2656H212.005V24.373C215.621 24.373 218.182 24.2046 221.146 23.6543L221.371 25.1816C218.249 25.7432 215.621 25.8555 211.825 25.8555H210.253V12.8057H219.574ZM239.362 12.6035V14.3779H244.034V10.874H245.809V25.4512H244.034V20.1279H239.362V21.9248H230.198V12.6035H239.362ZM231.95 14.0635V20.5098H237.633V14.0635H231.95ZM246.258 28.9102V30.3926H232.894V24.1484H234.668V28.9102H246.258ZM239.362 18.668H244.034V15.8604H239.362V18.668ZM252.322 24.3057C252.345 21.2959 253.266 20.375 254.815 19.4316C255.736 18.8701 256.455 17.9717 256.455 16.7139C256.455 15.1865 255.265 14.2207 253.782 14.2207C252.502 14.2207 251.222 14.9844 251.087 16.8262H249.043C249.155 14.1084 251.222 12.5137 253.782 12.5137C256.59 12.5137 258.432 14.333 258.432 16.8037C258.432 18.5557 257.601 19.791 256.208 20.6445C254.815 21.498 254.299 22.3516 254.254 24.3057V24.418H252.322V24.3057ZM253.355 29.1348C252.569 29.1348 251.896 28.4834 251.918 27.6748C251.896 26.8887 252.569 26.2373 253.355 26.2373C254.142 26.2373 254.793 26.8887 254.793 27.6748C254.793 28.4834 254.142 29.1348 253.355 29.1348Z" fill="black"/>
<g clip-path="url(#clip0_3368_209)">
<path d="M25.8418 32.0748L22.295 28.528C23.2548 27.3948 23.8344 25.9302 23.8344 24.3333C23.8344 20.7486 20.9192 17.8333 17.3344 17.8333C13.7497 17.8333 10.8344 20.7486 10.8344 24.3333C10.8344 27.9181 13.7497 30.8333 17.3344 30.8333C18.9323 30.8333 20.397 30.2538 21.5291 29.2939L25.0759 32.8408C25.1821 32.9469 25.3208 32.9989 25.4594 32.9989C25.5981 32.9989 25.7367 32.9458 25.8429 32.8408C26.0542 32.6295 26.0531 32.2861 25.8418 32.0748ZM17.3333 29.75C14.3466 29.75 11.9167 27.3201 11.9167 24.3333C11.9167 21.3466 14.3466 18.9167 17.3333 18.9167C20.3201 18.9167 22.75 21.3466 22.75 24.3333C22.75 27.3201 20.3201 29.75 17.3333 29.75ZM12.4583 31.9167H4.875C2.78417 31.9167 1.08333 30.2158 1.08333 28.125V11.875C1.08333 9.78417 2.78417 8.08333 4.875 8.08333H10.8496C11.2114 8.08333 11.5689 8.11583 11.9167 8.17758V14.0417C11.9167 15.5345 13.1322 16.75 14.625 16.75H20.9224C21.0893 16.75 21.2474 16.6731 21.3503 16.5409C21.4533 16.4088 21.4879 16.2365 21.4468 16.074C21.1337 14.8498 20.4967 13.7308 19.6029 12.8381L15.8275 9.06267C14.4972 7.73233 12.7292 7 10.8485 7H4.87392C2.18725 7 0 9.18725 0 11.875V28.125C0 30.8127 2.18725 33 4.875 33H12.4583C12.7573 33 13 32.7573 13 32.4583C13 32.1593 12.7573 31.9167 12.4583 31.9167ZM13 8.482C13.7648 8.77667 14.4658 9.23167 15.0627 9.82858L18.8381 13.604C19.4253 14.1912 19.8824 14.8953 20.1814 15.6667H14.625C13.7291 15.6667 13 14.9376 13 14.0417V8.482ZM10.2917 18.9167H4.875C4.576 18.9167 4.33333 18.674 4.33333 18.375C4.33333 18.076 4.576 17.8333 4.875 17.8333H10.2917C10.5907 17.8333 10.8333 18.076 10.8333 18.375C10.8333 18.674 10.5907 18.9167 10.2917 18.9167ZM4.33333 22.7083C4.33333 22.4093 4.576 22.1667 4.875 22.1667H8.125C8.424 22.1667 8.66667 22.4093 8.66667 22.7083C8.66667 23.0073 8.424 23.25 8.125 23.25H4.875C4.576 23.25 4.33333 23.0073 4.33333 22.7083ZM4.33333 27.0417C4.33333 26.7427 4.576 26.5 4.875 26.5H8.66667C8.96567 26.5 9.20833 26.7427 9.20833 27.0417C9.20833 27.3407 8.96567 27.5833 8.66667 27.5833H4.875C4.576 27.5833 4.33333 27.3407 4.33333 27.0417ZM20.9625 22.8632C21.1705 23.0788 21.1651 23.4212 20.9495 23.6292L18.0213 26.461C17.6313 26.8456 17.1167 27.0395 16.601 27.0395C16.0853 27.0395 15.5729 26.8477 15.1797 26.4632L13.702 25.0061C13.4886 24.7959 13.4864 24.4536 13.6966 24.2402C13.9067 24.0268 14.2513 24.0257 14.4625 24.2348L15.9391 25.6908C16.3042 26.0483 16.8978 26.0472 17.264 25.6864L20.1955 22.8513C20.4111 22.6433 20.7545 22.6498 20.9614 22.8643L20.9625 22.8632Z" fill="black"/>
</g>
<g filter="url(#filter2_d_3368_209)">
<path d="M34 33.5C33.7239 33.5 33.5 33.7239 33.5 34C33.5 34.2761 33.7239 34.5 34 34.5V33.5ZM265 34.5L270 36.8868V31.1132L265 33.5V34.5ZM34 34.5H265.5V33.5H34V34.5Z" fill="#8586D1"/>
</g>
<defs>
<filter id="filter0_f_3368_209" x="89" y="0" width="10" height="10" filterUnits="userSpaceOnUse" color-interpolation-filters="sRGB">
<feFlood flood-opacity="0" result="BackgroundImageFix"/>
<feBlend mode="normal" in="SourceGraphic" in2="BackgroundImageFix" result="shape"/>
<feGaussianBlur stdDeviation="1" result="effect1_foregroundBlur_3368_209"/>
</filter>
<filter id="filter1_f_3368_209" x="109" y="0" width="10" height="10" filterUnits="userSpaceOnUse" color-interpolation-filters="sRGB">
<feFlood flood-opacity="0" result="BackgroundImageFix"/>
<feBlend mode="normal" in="SourceGraphic" in2="BackgroundImageFix" result="shape"/>
<feGaussianBlur stdDeviation="1" result="effect1_foregroundBlur_3368_209"/>
</filter>
<filter id="filter2_d_3368_209" x="29.5" y="27.1133" width="244.5" height="13.7734" filterUnits="userSpaceOnUse" color-interpolation-filters="sRGB">
<feFlood flood-opacity="0" result="BackgroundImageFix"/>
<feColorMatrix in="SourceAlpha" type="matrix" values="0 0 0 0 0 0 0 0 0 0 0 0 0 0 0 0 0 0 127 0" result="hardAlpha"/>
<feOffset/>
<feGaussianBlur stdDeviation="2"/>
<feComposite in2="hardAlpha" operator="out"/>
<feColorMatrix type="matrix" values="0 0 0 0 0.1325 0 0 0 0 0.140292 0 0 0 0 0.6 0 0 0 0.2 0"/>
<feBlend mode="normal" in2="BackgroundImageFix" result="effect1_dropShadow_3368_209"/>
<feBlend mode="normal" in="SourceGraphic" in2="effect1_dropShadow_3368_209" result="shape"/>
</filter>
<clipPath id="clip0_3368_209">
<rect width="26" height="26" fill="white" transform="translate(0 7)"/>
</clipPath>
</defs>
</svg>
