<svg width="272" height="45" viewBox="0 0 272 45" fill="none" xmlns="http://www.w3.org/2000/svg">
<g filter="url(#filter0_f_3368_219)">
<circle cx="3" cy="3" r="3" transform="matrix(1 0 0 -1 92 8)" fill="#8586D1"/>
</g>
<g filter="url(#filter1_f_3368_219)">
<circle cx="3" cy="3" r="3" transform="matrix(1 0 0 -1 110 8)" fill="#8586D1"/>
</g>
<path d="M56.2949 11.874V26.4736H54.543V11.874H56.2949ZM56.9238 29.9102V31.3926H43.4023V24.9912H45.1543V29.9102H56.9238ZM45.5137 13.2666C48.501 13.2666 50.7471 15.2881 50.7471 18.1631C50.7471 21.083 48.501 23.082 45.5137 23.082C42.5264 23.082 40.2803 21.083 40.2803 18.1631C40.2803 15.2881 42.5264 13.2666 45.5137 13.2666ZM45.5137 14.8164C43.4922 14.8164 41.9873 16.209 42.0098 18.1631C41.9873 20.1621 43.4922 21.5322 45.5137 21.5322C47.4902 21.5322 49.0176 20.1621 49.0176 18.1631C49.0176 16.209 47.4902 14.8164 45.5137 14.8164ZM76.1953 11.8516V31.8193H74.4209V11.8516H76.1953ZM70.2881 14.0303C70.2656 19.7803 67.5928 24.8564 60.8994 28.0684L59.9336 26.6309C65.3354 24.0703 68.0869 20.2407 68.4912 15.4678H60.8545V14.0303H70.2881ZM95.3545 13.3789C95.3545 15.9844 98.9932 18.3652 102.452 18.9043L101.756 20.2969C98.7236 19.7803 95.7251 18.0957 94.4561 15.7598C93.1982 18.1406 90.166 19.8027 87.1338 20.3193L86.4375 18.9268C89.9189 18.3877 93.5352 16.0742 93.5352 13.3789V12.3682H95.3545V13.3789ZM103.598 22.0264V23.4863H95.4668V27.5742H93.7148V23.4863H85.3145V22.0264H103.598ZM101.554 29.9102V31.3926H87.6504V25.6201H89.4248V29.9102H101.554ZM111.796 12.8398C114.783 12.8174 116.917 14.457 116.917 16.9053C116.917 19.3311 114.783 21.0156 111.796 20.9932C108.809 21.0156 106.675 19.3311 106.675 16.9053C106.675 14.457 108.809 12.8174 111.796 12.8398ZM111.796 14.2773C109.797 14.2549 108.382 15.3555 108.404 16.9053C108.382 18.4775 109.797 19.5557 111.796 19.5332C113.817 19.5557 115.232 18.4775 115.232 16.9053C115.232 15.3555 113.817 14.2549 111.796 14.2773ZM121.679 11.874V31.8418H119.949V11.874H121.679ZM105.17 22.7002C108.921 22.7002 114.042 22.6328 118.489 21.9814L118.602 23.3066C116.692 23.6548 114.705 23.8682 112.784 23.9805V31.2129H111.032V24.0928C109 24.1826 107.079 24.1938 105.417 24.2051L105.17 22.7002ZM140.546 11.8516V19.9824H143.78V21.4648H140.546V31.8193H138.794V11.8516H140.546ZM135.38 14.0078C135.38 19.668 132.729 24.8115 126.216 28.0234L125.228 26.6309C130.394 24.0591 133.201 20.2183 133.605 15.4902H126.148V14.0078H135.38ZM166.623 12.7275V14.1426C166.623 15.6475 166.623 17.4893 166.129 19.8701H169.026V21.3076H160.693V24.4521C164.512 24.6094 166.78 25.9121 166.803 28.0908C166.78 30.4717 164.175 31.7744 159.84 31.7744C155.46 31.7744 152.832 30.4717 152.832 28.0908C152.832 25.9121 155.112 24.6206 158.964 24.4521V21.3076H150.743V19.8701H164.354C164.871 17.4443 164.871 15.6812 164.871 14.165H153.057V12.7275H166.623ZM159.84 25.8447C156.583 25.8672 154.606 26.6758 154.629 28.0908C154.606 29.5283 156.583 30.3594 159.84 30.3594C163.029 30.3594 165.006 29.5283 165.028 28.0908C165.006 26.6758 163.029 25.8672 159.84 25.8447ZM186.501 12.9297V14.4121C186.501 15.9619 186.501 17.7812 185.984 20.2744H188.904V21.7344H170.621V20.2744H184.21C184.749 17.77 184.749 15.9619 184.749 14.4121V14.3896H172.935V12.9297H186.501ZM186.591 24.4971V31.5498H172.867V24.4971H186.591ZM174.619 25.8896V30.1123H184.839V25.8896H174.619ZM205.952 11.8516V20.0947H209.299V21.5547H205.952V31.8193H204.2V11.8516H205.952ZM202.269 15.0635V16.5234H190.387V15.0635H195.53V12.0986H197.282V15.0635H202.269ZM196.429 18.1855C199.259 18.1855 201.303 20.0723 201.325 22.7676C201.303 25.4629 199.259 27.3496 196.429 27.3496C193.576 27.3496 191.51 25.4629 191.532 22.7676C191.51 20.0723 193.576 18.1855 196.429 18.1855ZM196.429 19.668C194.564 19.668 193.194 20.9707 193.217 22.7676C193.194 24.5869 194.564 25.8672 196.429 25.8447C198.271 25.8672 199.618 24.5869 199.641 22.7676C199.618 20.9707 198.271 19.668 196.429 19.668ZM225.83 11.8516V19.7578H229.177V21.2402H225.83V31.8643H224.078V11.8516H225.83ZM220.574 13.8057V15.2656H213.005V25.373C216.621 25.373 219.182 25.2046 222.146 24.6543L222.371 26.1816C219.249 26.7432 216.621 26.8555 212.825 26.8555H211.253V13.8057H220.574ZM240.362 13.6035V15.3779H245.034V11.874H246.809V26.4512H245.034V21.1279H240.362V22.9248H231.198V13.6035H240.362ZM232.95 15.0635V21.5098H238.633V15.0635H232.95ZM247.258 29.9102V31.3926H233.894V25.1484H235.668V29.9102H247.258ZM240.362 19.668H245.034V16.8604H240.362V19.668ZM253.322 25.3057C253.345 22.2959 254.266 21.375 255.815 20.4316C256.736 19.8701 257.455 18.9717 257.455 17.7139C257.455 16.1865 256.265 15.2207 254.782 15.2207C253.502 15.2207 252.222 15.9844 252.087 17.8262H250.043C250.155 15.1084 252.222 13.5137 254.782 13.5137C257.59 13.5137 259.432 15.333 259.432 17.8037C259.432 19.5557 258.601 20.791 257.208 21.6445C255.815 22.498 255.299 23.3516 255.254 25.3057V25.418H253.322V25.3057ZM254.355 30.1348C253.569 30.1348 252.896 29.4834 252.918 28.6748C252.896 27.8887 253.569 27.2373 254.355 27.2373C255.142 27.2373 255.793 27.8887 255.793 28.6748C255.793 29.4834 255.142 30.1348 254.355 30.1348Z" fill="black"/>
<g filter="url(#filter2_d_3368_219)">
<path d="M42 37.5C41.7239 37.5 41.5 37.7239 41.5 38C41.5 38.2761 41.7239 38.5 42 38.5V37.5ZM263 38.5L268 40.8868V35.1132L263 37.5V38.5ZM42 38.5H263.5V37.5H42V38.5Z" fill="#8586D1"/>
</g>
<path d="M25.9792 14.25H17.0012L15.3748 12.6755L20.6842 10.0208L14.6426 7H13.2917V12.9994L11.9988 14.25H3.02083C1.35454 14.25 0 15.6058 0 17.2708V36H29V17.2708C29 15.6058 27.6455 14.25 25.9792 14.25ZM25.9792 15.4583C26.9785 15.4583 27.7917 16.2715 27.7917 17.2708V19.0833H21.9941L18.2495 15.4583H25.9792ZM14.5 8.27963L17.9824 10.0208L14.5 11.762V8.27963ZM3.02083 15.4583H10.7505L7.00592 19.0833H1.20833V17.2708C1.20833 16.2715 2.02154 15.4583 3.02083 15.4583ZM16.9167 34.7917H12.0833V27.5417C12.0833 26.2089 13.1672 25.125 14.5 25.125C15.8328 25.125 16.9167 26.2089 16.9167 27.5417V34.7917ZM18.125 34.7917V27.5417C18.125 25.5431 16.4986 23.9167 14.5 23.9167C12.5014 23.9167 10.875 25.5431 10.875 27.5417V34.7917H1.20833V20.2917H7.49408L14.5 13.5105L21.5059 20.2917H27.7917V34.7917H18.125ZM4.83333 25.125H8.45833V26.3333H4.83333V25.125ZM4.83333 29.9583H8.45833V31.1667H4.83333V29.9583ZM20.5417 25.125H24.1667V26.3333H20.5417V25.125ZM20.5417 29.9583H24.1667V31.1667H20.5417V29.9583ZM15.7083 19.0833C15.7083 19.7503 15.167 20.2917 14.5 20.2917C13.833 20.2917 13.2917 19.7503 13.2917 19.0833C13.2917 18.4163 13.833 17.875 14.5 17.875C15.167 17.875 15.7083 18.4163 15.7083 19.0833Z" fill="black"/>
<defs>
<filter id="filter0_f_3368_219" x="90" y="0" width="10" height="10" filterUnits="userSpaceOnUse" color-interpolation-filters="sRGB">
<feFlood flood-opacity="0" result="BackgroundImageFix"/>
<feBlend mode="normal" in="SourceGraphic" in2="BackgroundImageFix" result="shape"/>
<feGaussianBlur stdDeviation="1" result="effect1_foregroundBlur_3368_219"/>
</filter>
<filter id="filter1_f_3368_219" x="108" y="0" width="10" height="10" filterUnits="userSpaceOnUse" color-interpolation-filters="sRGB">
<feFlood flood-opacity="0" result="BackgroundImageFix"/>
<feBlend mode="normal" in="SourceGraphic" in2="BackgroundImageFix" result="shape"/>
<feGaussianBlur stdDeviation="1" result="effect1_foregroundBlur_3368_219"/>
</filter>
<filter id="filter2_d_3368_219" x="37.5" y="31.1133" width="234.5" height="13.7734" filterUnits="userSpaceOnUse" color-interpolation-filters="sRGB">
<feFlood flood-opacity="0" result="BackgroundImageFix"/>
<feColorMatrix in="SourceAlpha" type="matrix" values="0 0 0 0 0 0 0 0 0 0 0 0 0 0 0 0 0 0 127 0" result="hardAlpha"/>
<feOffset/>
<feGaussianBlur stdDeviation="2"/>
<feComposite in2="hardAlpha" operator="out"/>
<feColorMatrix type="matrix" values="0 0 0 0 0.1325 0 0 0 0 0.140292 0 0 0 0 0.6 0 0 0 0.2 0"/>
<feBlend mode="normal" in2="BackgroundImageFix" result="effect1_dropShadow_3368_219"/>
<feBlend mode="normal" in="SourceGraphic" in2="effect1_dropShadow_3368_219" result="shape"/>
</filter>
</defs>
</svg>
